<svg xmlns="http://www.w3.org/2000/svg" xmlns:xlink="http://www.w3.org/1999/xlink" viewBox="0 0 1366 770.1"><defs><style>.cls-1{fill:url(#Namnlös_övertoning_2);}.cls-2{fill:url(#Namnlös_övertoning_77);}.cls-3{fill:url(#Namnlös_övertoning_77-2);}.cls-4{fill:url(#Namnlös_övertoning_77-3);}.cls-5{fill:url(#Namnlös_övertoning_75);}.cls-6{fill:url(#Namnlös_övertoning_77-4);}.cls-7{fill:url(#Namnlös_övertoning_77-5);}</style><linearGradient id="Namnlös_övertoning_2" y1="385.55" x2="1366" y2="385.55" gradientUnits="userSpaceOnUse"><stop offset="0" stop-color="#8652a4"/><stop offset="1" stop-color="#262992"/></linearGradient><linearGradient id="Namnlös_övertoning_77" x1="-56.22" y1="311.02" x2="131.51" y2="202.63" gradientUnits="userSpaceOnUse"><stop offset="0" stop-color="#8652a4" stop-opacity="0"/><stop offset="1" stop-color="#4860d7"/></linearGradient><linearGradient id="Namnlös_övertoning_77-2" x1="694.36" y1="737.44" x2="897.08" y2="620.4" gradientTransform="matrix(0.99, -0.16, 0.16, 0.99, -59.63, 86.73)" xlink:href="#Namnlös_övertoning_77"/><linearGradient id="Namnlös_övertoning_77-3" x1="1151.58" y1="376.09" x2="1271.42" y2="306.91" xlink:href="#Namnlös_övertoning_77"/><linearGradient id="Namnlös_övertoning_75" x1="74.93" y1="686.31" x2="263.07" y2="577.69" gradientUnits="userSpaceOnUse"><stop offset="0" stop-color="#8652a4" stop-opacity="0"/><stop offset="1" stop-color="#4467d7"/></linearGradient><linearGradient id="Namnlös_övertoning_77-4" x1="195.29" y1="56.29" x2="350.7" y2="-33.43" xlink:href="#Namnlös_övertoning_77"/><linearGradient id="Namnlös_övertoning_77-5" x1="366.1" y1="413.26" x2="496.9" y2="337.74" xlink:href="#Namnlös_övertoning_77"/></defs><title>Lager 1 (3)</title><g id="Lager_2" data-name="Lager 2"><g id="Lager_1-2" data-name="Lager 1"><path class="cls-1" d="M0,1H411.79C502.19,1,1365,308,1365,308l1,461c-506.22,1.63-749.12,1.2-875.14.32-21.94-.15-100.1-.73-206.36-.82C163.83,768.4.17,257.17,0,1Z"/><path class="cls-2" d="M1.5,411a144.5,144.5,0,0,0,0-289"/><polygon class="cls-3" points="824.15 751.93 724.72 684.3 733.56 564.38 841.85 512.07 941.28 579.7 932.44 699.62 824.15 751.93"/><polygon class="cls-4" points="1162.15 394.39 1141.02 325.2 1190.37 272.31 1260.85 288.61 1281.98 357.8 1232.63 410.69 1162.15 394.39"/><polygon class="cls-5" points="74.84 686.17 75.01 577.54 169.16 523.37 263.16 577.83 262.99 686.46 168.84 740.63 74.84 686.17"/><path class="cls-6" d="M169,0c0,34.24,45,62,100.5,62S370,34.24,370,0"/><circle class="cls-7" cx="431.5" cy="375.5" r="75.5"/></g></g></svg>